<svg viewBox="0 0 18 18" class="" role="presentation" focusable="false" xmlns="http://www.w3.org/2000/svg" xmlns:xlink="http://www.w3.org/1999/xlink" id="FxSymbol0-02f" data-type="1"><g><title></title><g clip-path="url(#176bef49-3e37-46dd-8950-9621be00604a)"><path d="M11.957 11.683c.038 0 .075-.1.075-.238V7.577c0-.853.66-1.76 1.585-2.034-.057-.188-.645-2.112-.81-2.646C12.631 2.335 12.131 1 11.52 1a.09.09 0 0 0-.014.001c-.047.008-.091.053-.135.129-.32.583-.463 3.015-.463 4.837V8.23c.275.97.912 3.217.961 3.353 0 0 .05.1.088.1Z" fill="url(#176bef49-3e37-46dd-8950-9621be006046)"></path><path d="M11.957 11.683c.038 0 .075-.1.075-.238V7.577c0-.853.66-1.76 1.585-2.034-.057-.188-.645-2.112-.81-2.646C12.631 2.335 12.131 1 11.52 1a.09.09 0 0 0-.014.001c-.047.008-.091.053-.135.129-.32.583-.463 3.015-.463 4.837V8.23c.275.97.912 3.217.961 3.353 0 0 .05.1.088.1Z" fill="url(#176bef49-3e37-46dd-8950-9621be006047)"></path><path d="M16.015 5.456h-1.807c-1.214 0-2.175 1.085-2.175 2.109v3.867c0 .139-.037.239-.074.239-.038 0-.088-.1-.088-.1s.075.212.175.212h1.98c.616 0 2.475-.611 2.475-2.52V6.006c0-.414-.237-.551-.486-.551Z" fill="url(#176bef49-3e37-46dd-8950-9621be006048)"></path><path d="M2.336 17h5.38c2.346 0 3.194-2.034 3.194-3.807V5.967c0-2.084.188-4.967.612-4.967H8.296c-.768 0-1.43.824-2.178 2.484-.75 1.66-4.357 11.872-4.518 12.355-.262.787-.025 1.161.736 1.161Z" fill="url(#176bef49-3e37-46dd-8950-9621be006049)"></path></g><defs></defs></g><defs>
<linearGradient id="176bef49-3e37-46dd-8950-9621be006049" x1="5.642" y1="16.984" x2="5.642" y2=".83" gradientUnits="userSpaceOnUse"><stop stop-color="#302EC9"></stop><stop offset=".446" stop-color="#302EC9"></stop><stop offset=".949" stop-color="#CACAFB"></stop><stop offset="1" stop-color="#7F7EAF"></stop></linearGradient>
<linearGradient id="176bef49-3e37-46dd-8950-9621be006048" x1="14.186" y1="11.73" x2="14.186" y2="5.526" gradientUnits="userSpaceOnUse"><stop stop-color="#3530C3"></stop><stop offset=".5" stop-color="#6D71D1"></stop><stop offset=".967" stop-color="#C0BFF5"></stop><stop offset="1" stop-color="#E3E4FF"></stop></linearGradient>
<linearGradient id="176bef49-3e37-46dd-8950-9621be006047" x1="12.263" y1="11.683" x2="12.263" y2="1.766" gradientUnits="userSpaceOnUse"><stop offset=".02" stop-color="#201BA6"></stop><stop offset=".64" stop-color="#2D29C7"></stop><stop offset="1" stop-color="#201BA6"></stop></linearGradient>
<linearGradient id="176bef49-3e37-46dd-8950-9621be006046" x1="10.909" y1="6.342" x2="13.617" y2="6.342" gradientUnits="userSpaceOnUse"><stop stop-color="#302EC9"></stop><stop offset=".12" stop-color="#151698"></stop><stop offset=".25" stop-color="#0A0B7E"></stop><stop offset=".43" stop-color="#090C7F"></stop><stop offset=".51" stop-color="#141698"></stop><stop offset=".61" stop-color="#282AC4"></stop><stop offset=".77" stop-color="#8E8FF4"></stop><stop offset=".85" stop-color="#A7A6F7"></stop><stop offset=".91" stop-color="#CACAFB"></stop><stop offset="1" stop-color="#fff"></stop></linearGradient>
<clipPath id="176bef49-3e37-46dd-8950-9621be00604a"><path transform="translate(1.497 1)" d="M0 0h15.004v16H0z" class="msportalfx-svg-c01"></path></clipPath>
</defs></svg>